<svg width="241" height="32" viewBox="0 0 241 32" fill="none" xmlns="http://www.w3.org/2000/svg">
<path d="M122.264 12.06L121.988 12.372V4.704H123.164V12.372L122.864 12.06H126.956L126.656 12.372V4.704H127.832V13.104H117.308V4.704H118.496V12.372L118.196 12.06H122.264ZM134.861 13.104L132.401 10.008L133.349 9.432L136.217 13.104H134.861ZM130.253 13.104V6.744H131.405V13.104H130.253ZM131.057 10.416V9.432H133.157V10.416H131.057ZM133.445 10.056L132.377 9.912L134.813 6.744H136.049L133.445 10.056ZM139.938 13.176C139.298 13.176 138.73 13.036 138.234 12.756C137.738 12.476 137.346 12.092 137.058 11.604C136.77 11.108 136.626 10.548 136.626 9.924C136.626 9.292 136.77 8.732 137.058 8.244C137.346 7.756 137.738 7.376 138.234 7.104C138.73 6.824 139.298 6.684 139.938 6.684C140.57 6.684 141.134 6.824 141.63 7.104C142.134 7.376 142.526 7.756 142.806 8.244C143.094 8.724 143.238 9.284 143.238 9.924C143.238 10.556 143.094 11.116 142.806 11.604C142.526 12.092 142.134 12.476 141.63 12.756C141.134 13.036 140.57 13.176 139.938 13.176ZM139.938 12.168C140.346 12.168 140.71 12.076 141.03 11.892C141.358 11.708 141.614 11.448 141.798 11.112C141.982 10.768 142.074 10.372 142.074 9.924C142.074 9.468 141.982 9.076 141.798 8.748C141.614 8.412 141.358 8.152 141.03 7.968C140.71 7.784 140.346 7.692 139.938 7.692C139.53 7.692 139.166 7.784 138.846 7.968C138.526 8.152 138.27 8.412 138.078 8.748C137.886 9.076 137.79 9.468 137.79 9.924C137.79 10.372 137.886 10.768 138.078 11.112C138.27 11.448 138.526 11.708 138.846 11.892C139.166 12.076 139.53 12.168 139.938 12.168ZM143.798 13.092L143.87 12.12C143.926 12.128 143.978 12.136 144.026 12.144C144.074 12.152 144.118 12.156 144.158 12.156C144.414 12.156 144.614 12.068 144.758 11.892C144.91 11.716 145.022 11.484 145.094 11.196C145.166 10.9 145.218 10.568 145.25 10.2C145.282 9.832 145.306 9.464 145.322 9.096L145.43 6.744H150.314V13.104H149.162V7.416L149.438 7.752H146.174L146.438 7.404L146.354 9.168C146.33 9.728 146.286 10.252 146.222 10.74C146.158 11.228 146.058 11.656 145.922 12.024C145.794 12.392 145.614 12.68 145.382 12.888C145.158 13.096 144.866 13.2 144.506 13.2C144.402 13.2 144.29 13.188 144.17 13.164C144.058 13.148 143.934 13.124 143.798 13.092ZM156.442 13.104V11.76L156.382 11.508V9.216C156.382 8.728 156.238 8.352 155.95 8.088C155.67 7.816 155.246 7.68 154.678 7.68C154.302 7.68 153.934 7.744 153.574 7.872C153.214 7.992 152.91 8.156 152.662 8.364L152.182 7.5C152.51 7.236 152.902 7.036 153.358 6.9C153.822 6.756 154.306 6.684 154.81 6.684C155.682 6.684 156.354 6.896 156.826 7.32C157.298 7.744 157.534 8.392 157.534 9.264V13.104H156.442ZM154.354 13.176C153.882 13.176 153.466 13.096 153.106 12.936C152.754 12.776 152.482 12.556 152.29 12.276C152.098 11.988 152.002 11.664 152.002 11.304C152.002 10.96 152.082 10.648 152.242 10.368C152.41 10.088 152.678 9.864 153.046 9.696C153.422 9.528 153.926 9.444 154.558 9.444H156.574V10.272H154.606C154.03 10.272 153.642 10.368 153.442 10.56C153.242 10.752 153.142 10.984 153.142 11.256C153.142 11.568 153.266 11.82 153.514 12.012C153.762 12.196 154.106 12.288 154.546 12.288C154.978 12.288 155.354 12.192 155.674 12C156.002 11.808 156.238 11.528 156.382 11.16L156.61 11.952C156.458 12.328 156.19 12.628 155.806 12.852C155.422 13.068 154.938 13.176 154.354 13.176ZM162.831 13.104V6.744H168.723V13.104H167.571V7.464L167.847 7.752H163.707L163.983 7.464V13.104H162.831ZM170.952 13.104V6.744H172.104V13.104H170.952ZM171.528 5.52C171.304 5.52 171.116 5.448 170.964 5.304C170.82 5.16 170.748 4.984 170.748 4.776C170.748 4.56 170.82 4.38 170.964 4.236C171.116 4.092 171.304 4.02 171.528 4.02C171.752 4.02 171.936 4.092 172.08 4.236C172.232 4.372 172.308 4.544 172.308 4.752C172.308 4.968 172.236 5.152 172.092 5.304C171.948 5.448 171.76 5.52 171.528 5.52ZM178.694 12.564V7.752H175.934L175.874 8.976C175.858 9.376 175.83 9.764 175.79 10.14C175.758 10.508 175.702 10.848 175.622 11.16C175.55 11.472 175.442 11.728 175.298 11.928C175.154 12.128 174.962 12.252 174.722 12.3L173.582 12.096C173.83 12.104 174.03 12.024 174.182 11.856C174.334 11.68 174.45 11.44 174.53 11.136C174.618 10.832 174.682 10.488 174.722 10.104C174.762 9.712 174.794 9.308 174.818 8.892L174.914 6.744H179.846V12.564H178.694ZM173.33 14.58V12.096H180.818V14.58H179.738V13.104H174.422V14.58H173.33ZM182.319 13.104V6.744H186.999V7.752H183.195L183.471 7.488V13.104H182.319ZM190.621 13.176C189.981 13.176 189.413 13.036 188.917 12.756C188.421 12.476 188.029 12.092 187.741 11.604C187.453 11.108 187.309 10.548 187.309 9.924C187.309 9.292 187.453 8.732 187.741 8.244C188.029 7.756 188.421 7.376 188.917 7.104C189.413 6.824 189.981 6.684 190.621 6.684C191.253 6.684 191.817 6.824 192.313 7.104C192.817 7.376 193.209 7.756 193.489 8.244C193.777 8.724 193.921 9.284 193.921 9.924C193.921 10.556 193.777 11.116 193.489 11.604C193.209 12.092 192.817 12.476 192.313 12.756C191.817 13.036 191.253 13.176 190.621 13.176ZM190.621 12.168C191.029 12.168 191.393 12.076 191.713 11.892C192.041 11.708 192.297 11.448 192.481 11.112C192.665 10.768 192.757 10.372 192.757 9.924C192.757 9.468 192.665 9.076 192.481 8.748C192.297 8.412 192.041 8.152 191.713 7.968C191.393 7.784 191.029 7.692 190.621 7.692C190.213 7.692 189.849 7.784 189.529 7.968C189.209 8.152 188.953 8.412 188.761 8.748C188.569 9.076 188.473 9.468 188.473 9.924C188.473 10.372 188.569 10.768 188.761 11.112C188.953 11.448 189.209 11.708 189.529 11.892C189.849 12.076 190.213 12.168 190.621 12.168ZM196.61 13.104V7.452L196.898 7.752H194.282V6.744H200.09V7.752H197.486L197.762 7.452V13.104H196.61ZM203.711 13.176C203.071 13.176 202.503 13.036 202.007 12.756C201.511 12.476 201.119 12.092 200.831 11.604C200.543 11.108 200.399 10.548 200.399 9.924C200.399 9.292 200.543 8.732 200.831 8.244C201.119 7.756 201.511 7.376 202.007 7.104C202.503 6.824 203.071 6.684 203.711 6.684C204.343 6.684 204.907 6.824 205.403 7.104C205.907 7.376 206.299 7.756 206.579 8.244C206.867 8.724 207.011 9.284 207.011 9.924C207.011 10.556 206.867 11.116 206.579 11.604C206.299 12.092 205.907 12.476 205.403 12.756C204.907 13.036 204.343 13.176 203.711 13.176ZM203.711 12.168C204.119 12.168 204.483 12.076 204.803 11.892C205.131 11.708 205.387 11.448 205.571 11.112C205.755 10.768 205.847 10.372 205.847 9.924C205.847 9.468 205.755 9.076 205.571 8.748C205.387 8.412 205.131 8.152 204.803 7.968C204.483 7.784 204.119 7.692 203.711 7.692C203.303 7.692 202.939 7.784 202.619 7.968C202.299 8.152 202.043 8.412 201.851 8.748C201.659 9.076 201.563 9.468 201.563 9.924C201.563 10.372 201.659 10.768 201.851 11.112C202.043 11.448 202.299 11.708 202.619 11.892C202.939 12.076 203.303 12.168 203.711 12.168ZM208.675 13.104V6.744H211.627C212.371 6.744 212.955 6.888 213.379 7.176C213.811 7.456 214.027 7.856 214.027 8.376C214.027 8.896 213.823 9.3 213.415 9.588C213.015 9.868 212.483 10.008 211.819 10.008L211.999 9.696C212.759 9.696 213.323 9.836 213.691 10.116C214.059 10.396 214.243 10.808 214.243 11.352C214.243 11.904 214.035 12.336 213.619 12.648C213.211 12.952 212.583 13.104 211.735 13.104H208.675ZM209.803 12.216H211.651C212.131 12.216 212.491 12.144 212.731 12C212.971 11.848 213.091 11.608 213.091 11.28C213.091 10.944 212.979 10.7 212.755 10.548C212.539 10.388 212.195 10.308 211.723 10.308H209.803V12.216ZM209.803 9.48H211.531C211.971 9.48 212.303 9.4 212.527 9.24C212.759 9.072 212.875 8.84 212.875 8.544C212.875 8.24 212.759 8.012 212.527 7.86C212.303 7.708 211.971 7.632 211.531 7.632H209.803V9.48ZM220.654 13.104L218.194 10.008L219.142 9.432L222.01 13.104H220.654ZM216.046 13.104V6.744H217.198V13.104H216.046ZM216.85 10.416V9.432H218.95V10.416H216.85ZM219.238 10.056L218.17 9.912L220.606 6.744H221.842L219.238 10.056ZM223.218 13.104V6.744H224.37V11.376L228.27 6.744H229.314V13.104H228.162V8.472L224.274 13.104H223.218ZM117.26 28.104V19.704H118.46V28.104H117.26ZM122.643 28.104V20.748H119.763V19.704H126.711V20.748H123.831V28.104H122.643ZM127.043 25.308V24.312H130.271V25.308H127.043ZM134.958 28.176C134.31 28.176 133.73 28.036 133.218 27.756C132.714 27.476 132.318 27.092 132.03 26.604C131.742 26.116 131.598 25.556 131.598 24.924C131.598 24.292 131.742 23.732 132.03 23.244C132.318 22.756 132.714 22.376 133.218 22.104C133.73 21.824 134.31 21.684 134.958 21.684C135.534 21.684 136.046 21.8 136.494 22.032C136.95 22.256 137.302 22.592 137.55 23.04L136.674 23.604C136.466 23.292 136.21 23.064 135.906 22.92C135.61 22.768 135.29 22.692 134.946 22.692C134.53 22.692 134.158 22.784 133.83 22.968C133.502 23.152 133.242 23.412 133.05 23.748C132.858 24.076 132.762 24.468 132.762 24.924C132.762 25.38 132.858 25.776 133.05 26.112C133.242 26.448 133.502 26.708 133.83 26.892C134.158 27.076 134.53 27.168 134.946 27.168C135.29 27.168 135.61 27.096 135.906 26.952C136.21 26.8 136.466 26.568 136.674 26.256L137.55 26.808C137.302 27.248 136.95 27.588 136.494 27.828C136.046 28.06 135.534 28.176 134.958 28.176ZM139.042 28.104V21.744H144.934V28.104H143.782V22.464L144.058 22.752H139.918L140.194 22.464V28.104H139.042ZM149.995 28.176C149.315 28.176 148.715 28.036 148.195 27.756C147.683 27.476 147.283 27.092 146.995 26.604C146.715 26.116 146.575 25.556 146.575 24.924C146.575 24.292 146.711 23.732 146.983 23.244C147.263 22.756 147.643 22.376 148.123 22.104C148.611 21.824 149.159 21.684 149.767 21.684C150.383 21.684 150.927 21.82 151.399 22.092C151.871 22.364 152.239 22.748 152.503 23.244C152.775 23.732 152.911 24.304 152.911 24.96C152.911 25.008 152.907 25.064 152.899 25.128C152.899 25.192 152.895 25.252 152.887 25.308H147.475V24.48H152.287L151.819 24.768C151.827 24.36 151.743 23.996 151.567 23.676C151.391 23.356 151.147 23.108 150.835 22.932C150.531 22.748 150.175 22.656 149.767 22.656C149.367 22.656 149.011 22.748 148.699 22.932C148.387 23.108 148.143 23.36 147.967 23.688C147.791 24.008 147.703 24.376 147.703 24.792V24.984C147.703 25.408 147.799 25.788 147.991 26.124C148.191 26.452 148.467 26.708 148.819 26.892C149.171 27.076 149.575 27.168 150.031 27.168C150.407 27.168 150.747 27.104 151.051 26.976C151.363 26.848 151.635 26.656 151.867 26.4L152.503 27.144C152.215 27.48 151.855 27.736 151.423 27.912C150.999 28.088 150.523 28.176 149.995 28.176ZM154.698 28.104V21.744H155.85V27.096H159.33V21.744H160.482V28.104H154.698ZM160.398 29.58V28.044L160.686 28.104H159.33V27.096H161.49V29.58H160.398ZM162.983 28.104V21.744H164.135V28.104H162.983ZM163.559 20.52C163.335 20.52 163.147 20.448 162.995 20.304C162.851 20.16 162.779 19.984 162.779 19.776C162.779 19.56 162.851 19.38 162.995 19.236C163.147 19.092 163.335 19.02 163.559 19.02C163.783 19.02 163.967 19.092 164.111 19.236C164.263 19.372 164.339 19.544 164.339 19.752C164.339 19.968 164.267 20.152 164.123 20.304C163.979 20.448 163.791 20.52 163.559 20.52ZM170.282 28.104V26.76L170.222 26.508V24.216C170.222 23.728 170.078 23.352 169.79 23.088C169.51 22.816 169.086 22.68 168.518 22.68C168.142 22.68 167.774 22.744 167.414 22.872C167.054 22.992 166.75 23.156 166.502 23.364L166.022 22.5C166.35 22.236 166.742 22.036 167.198 21.9C167.662 21.756 168.146 21.684 168.65 21.684C169.522 21.684 170.194 21.896 170.666 22.32C171.138 22.744 171.374 23.392 171.374 24.264V28.104H170.282ZM168.194 28.176C167.722 28.176 167.306 28.096 166.946 27.936C166.594 27.776 166.322 27.556 166.13 27.276C165.938 26.988 165.842 26.664 165.842 26.304C165.842 25.96 165.922 25.648 166.082 25.368C166.25 25.088 166.518 24.864 166.886 24.696C167.262 24.528 167.766 24.444 168.398 24.444H170.414V25.272H168.446C167.87 25.272 167.482 25.368 167.282 25.56C167.082 25.752 166.982 25.984 166.982 26.256C166.982 26.568 167.106 26.82 167.354 27.012C167.602 27.196 167.946 27.288 168.386 27.288C168.818 27.288 169.194 27.192 169.514 27C169.842 26.808 170.078 26.528 170.222 26.16L170.45 26.952C170.298 27.328 170.03 27.628 169.646 27.852C169.262 28.068 168.778 28.176 168.194 28.176ZM172.392 28.092L172.464 27.12C172.52 27.128 172.572 27.136 172.62 27.144C172.668 27.152 172.712 27.156 172.752 27.156C173.008 27.156 173.208 27.068 173.352 26.892C173.504 26.716 173.616 26.484 173.688 26.196C173.76 25.9 173.812 25.568 173.844 25.2C173.876 24.832 173.9 24.464 173.916 24.096L174.024 21.744H178.908V28.104H177.756V22.416L178.032 22.752H174.768L175.032 22.404L174.948 24.168C174.924 24.728 174.88 25.252 174.816 25.74C174.752 26.228 174.652 26.656 174.516 27.024C174.388 27.392 174.208 27.68 173.976 27.888C173.752 28.096 173.46 28.2 173.1 28.2C172.996 28.2 172.884 28.188 172.764 28.164C172.652 28.148 172.528 28.124 172.392 28.092ZM181.136 28.104V21.744H182.288V28.104H181.136ZM181.712 20.52C181.488 20.52 181.3 20.448 181.148 20.304C181.004 20.16 180.932 19.984 180.932 19.776C180.932 19.56 181.004 19.38 181.148 19.236C181.3 19.092 181.488 19.02 181.712 19.02C181.936 19.02 182.12 19.092 182.264 19.236C182.416 19.372 182.492 19.544 182.492 19.752C182.492 19.968 182.42 20.152 182.276 20.304C182.132 20.448 181.944 20.52 181.712 20.52ZM187.306 28.176C186.658 28.176 186.078 28.036 185.566 27.756C185.062 27.476 184.666 27.092 184.378 26.604C184.09 26.116 183.946 25.556 183.946 24.924C183.946 24.292 184.09 23.732 184.378 23.244C184.666 22.756 185.062 22.376 185.566 22.104C186.078 21.824 186.658 21.684 187.306 21.684C187.882 21.684 188.394 21.8 188.842 22.032C189.298 22.256 189.65 22.592 189.898 23.04L189.022 23.604C188.814 23.292 188.558 23.064 188.254 22.92C187.958 22.768 187.638 22.692 187.294 22.692C186.878 22.692 186.506 22.784 186.178 22.968C185.85 23.152 185.59 23.412 185.398 23.748C185.206 24.076 185.11 24.468 185.11 24.924C185.11 25.38 185.206 25.776 185.398 26.112C185.59 26.448 185.85 26.708 186.178 26.892C186.506 27.076 186.878 27.168 187.294 27.168C187.638 27.168 187.958 27.096 188.254 26.952C188.558 26.8 188.814 26.568 189.022 26.256L189.898 26.808C189.65 27.248 189.298 27.588 188.842 27.828C188.394 28.06 187.882 28.176 187.306 28.176ZM192.567 28.104V22.452L192.855 22.752H190.239V21.744H196.047V22.752H193.443L193.719 22.452V28.104H192.567ZM197.225 28.104V21.744H198.377V28.104H197.225ZM197.801 20.52C197.577 20.52 197.389 20.448 197.237 20.304C197.093 20.16 197.021 19.984 197.021 19.776C197.021 19.56 197.093 19.38 197.237 19.236C197.389 19.092 197.577 19.02 197.801 19.02C198.025 19.02 198.209 19.092 198.353 19.236C198.505 19.372 198.581 19.544 198.581 19.752C198.581 19.968 198.509 20.152 198.365 20.304C198.221 20.448 198.033 20.52 197.801 20.52ZM200.624 28.104V21.744H203.576C204.32 21.744 204.904 21.888 205.328 22.176C205.76 22.456 205.976 22.856 205.976 23.376C205.976 23.896 205.772 24.3 205.364 24.588C204.964 24.868 204.432 25.008 203.768 25.008L203.948 24.696C204.708 24.696 205.272 24.836 205.64 25.116C206.008 25.396 206.192 25.808 206.192 26.352C206.192 26.904 205.984 27.336 205.568 27.648C205.16 27.952 204.532 28.104 203.684 28.104H200.624ZM201.752 27.216H203.6C204.08 27.216 204.44 27.144 204.68 27C204.92 26.848 205.04 26.608 205.04 26.28C205.04 25.944 204.928 25.7 204.704 25.548C204.488 25.388 204.144 25.308 203.672 25.308H201.752V27.216ZM201.752 24.48H203.48C203.92 24.48 204.252 24.4 204.476 24.24C204.708 24.072 204.824 23.84 204.824 23.544C204.824 23.24 204.708 23.012 204.476 22.86C204.252 22.708 203.92 22.632 203.48 22.632H201.752V24.48Z" fill="#010101"/>
<path fill-rule="evenodd" clip-rule="evenodd" d="M43.8462 1.104H0V31.104H43.8462L55.3846 16.104L43.8462 1.104ZM19.6567 14.0752C19.5886 14.0207 19.5215 13.9662 19.4547 13.9121C19.286 13.7753 19.1199 13.6407 18.949 13.5116C18.4829 13.1558 17.9766 12.8725 17.3959 12.7462C16.7549 12.606 16.1076 12.5552 15.4681 12.7493C14.556 13.0249 13.9212 13.6255 13.5015 14.4618C13.1531 15.1579 13.0602 15.8956 13.1516 16.6625C13.2243 17.2631 13.4179 17.8206 13.7725 18.315C14.3176 19.0742 15.0608 19.5131 15.9899 19.6286C16.8261 19.7334 17.6359 19.6286 18.4024 19.2621C18.6641 19.1366 18.6641 19.1343 18.6641 18.8453V18.8401C18.6641 18.7697 18.6643 18.6995 18.6645 18.6294V18.6292V18.629V18.6289C18.6648 18.4889 18.6651 18.3491 18.6641 18.2087C18.6639 18.1805 18.6643 18.1564 18.6646 18.1359C18.6656 18.0774 18.666 18.0474 18.6512 18.0322C18.6355 18.0161 18.6028 18.0165 18.5356 18.0173C18.5187 18.0175 18.4997 18.0177 18.4783 18.0177H16.0472C16.0256 18.0177 16.0065 18.018 15.9895 18.0182H15.9893H15.9892C15.921 18.019 15.8878 18.0194 15.872 18.0031C15.857 17.9877 15.8577 17.9573 15.8589 17.8979C15.8593 17.8781 15.8598 17.8551 15.8598 17.8283C15.8588 17.1815 15.8591 16.5347 15.8595 15.8879L15.8595 15.8825C15.8597 15.5609 15.8598 15.2393 15.8598 14.9176L15.86 14.9014L15.8605 14.882C15.8612 14.8579 15.8619 14.8335 15.8598 14.8098C15.8552 14.7529 15.8753 14.7221 15.9373 14.7282C15.9611 14.7303 15.9856 14.7296 16.0098 14.7289L16.0099 14.7289C16.0219 14.7286 16.0339 14.7282 16.0457 14.7282H22.1915C22.2318 14.7282 22.2658 14.7359 22.2597 14.7867C22.2569 14.8173 22.2762 14.8379 22.2959 14.8589C22.3199 14.8844 22.3445 14.9105 22.3309 14.9561C22.3191 14.9954 22.3221 15.0383 22.3251 15.0814L22.3251 15.0815C22.3264 15.1009 22.3278 15.1203 22.3278 15.1394L22.3277 16.2449C22.3274 17.7187 22.3272 19.1932 22.3309 20.6666C22.3309 20.7867 22.2937 20.8622 22.2024 20.9377C21.058 21.8848 19.7713 22.547 18.3157 22.875C17.4548 23.0691 16.583 23.123 15.7019 23.0521C14.6613 22.969 13.6719 22.7026 12.7583 22.1974C11.0813 21.2703 10.0252 19.8627 9.539 18.0254C9.32531 17.2138 9.26027 16.3868 9.3284 15.5521C9.5839 12.4567 11.761 10.0419 14.6784 9.37041C15.5114 9.17791 16.3523 9.15019 17.2008 9.20717C17.8512 9.25183 18.4907 9.35347 19.1163 9.53828C20.0531 9.81702 20.88 10.2975 21.6325 10.9135C21.7208 10.9859 21.8075 11.0583 21.8927 11.1322C22.0011 11.2246 22.0042 11.277 21.9097 11.3909C21.4359 11.9608 20.962 12.529 20.4867 13.0973C20.2497 13.3822 20.0128 13.6671 19.7744 13.9505L19.7652 13.9625L19.756 13.9748C19.7298 14.0102 19.7019 14.0478 19.6567 14.0752ZM31.7515 9.18092C33.5152 9.19478 35.2216 9.81542 36.654 11.1183C37.7658 12.1316 38.4471 13.3945 38.7196 14.8683C39.0231 16.5084 38.8048 18.0793 37.9903 19.5438C37.024 21.281 35.5499 22.3945 33.6267 22.8981C31.9714 23.3323 30.33 23.2446 28.7459 22.587C26.6834 21.7292 25.3502 20.1891 24.7246 18.0731C24.1656 16.1804 24.3684 14.3401 25.3687 12.6244C26.3427 10.952 27.8091 9.90474 29.6828 9.41654C30.3285 9.24868 30.937 9.18246 31.7515 9.18092ZM31.3334 12.703C30.3656 12.7246 29.3684 13.2759 28.7444 14.4263C28.3201 15.2071 28.221 16.0495 28.3821 16.9196C28.509 17.6065 28.8079 18.2148 29.3034 18.7138C30.0761 19.493 31.0222 19.7995 32.1061 19.6748C33.2272 19.5469 34.0603 18.974 34.5945 17.99C35.0482 17.1522 35.1427 16.2559 34.9305 15.3334C34.5806 13.8026 33.2969 12.6984 31.3334 12.703Z" fill="#FF6B0A"/>
<path fill-rule="evenodd" clip-rule="evenodd" d="M99.2309 1.104H55.3848V31.104H99.2309V1.104ZM69.7687 9.36394V15.9076V22.4204C69.7687 22.4343 69.769 22.4482 69.7694 22.462L69.7694 22.4621V22.4621C69.77 22.4897 69.7707 22.517 69.7687 22.5436C69.7625 22.6191 69.7826 22.6637 69.8693 22.6514C69.89 22.6494 69.9106 22.65 69.9313 22.6507C69.9416 22.6511 69.9519 22.6514 69.9622 22.6514C70.3278 22.6514 70.6936 22.6516 71.0595 22.6518H71.0599H71.0602H71.0629C71.7946 22.6521 72.5268 22.6524 73.2589 22.6514C73.282 22.6514 73.3024 22.6517 73.3205 22.6519C73.391 22.6528 73.4253 22.6532 73.4416 22.6363C73.457 22.6203 73.4563 22.5887 73.455 22.5273V22.5272C73.4545 22.5065 73.454 22.4824 73.454 22.4543V9.38242C73.454 9.37216 73.4537 9.36189 73.4533 9.35162C73.4526 9.33109 73.452 9.31055 73.454 9.29002C73.4618 9.21302 73.4354 9.17298 73.3518 9.18222C73.3354 9.18426 73.3182 9.18359 73.3008 9.18291L73.2949 9.18268C73.2881 9.18243 73.2813 9.18222 73.2744 9.18222C72.905 9.18222 72.5354 9.18205 72.1658 9.18188H72.1656H72.1655C71.4258 9.18153 70.6859 9.18119 69.9467 9.18222C69.9248 9.18222 69.9056 9.18193 69.8887 9.18168H69.8886C69.8277 9.18077 69.7971 9.18031 69.7819 9.19538C69.7667 9.21057 69.7672 9.24155 69.7681 9.30375C69.7684 9.32123 69.7687 9.34118 69.7687 9.36394ZM88.1242 9.18267H82.6272C80.7953 9.18267 78.9635 9.18267 77.1332 9.18113C77.1257 9.18113 77.1182 9.18118 77.1107 9.18125C77.1043 9.18131 77.098 9.18139 77.0916 9.18147C77.0643 9.18181 77.0371 9.18215 77.0093 9.18113C76.9474 9.17805 76.9257 9.20731 76.9303 9.26429C76.9314 9.28169 76.931 9.2984 76.9307 9.31534C76.9305 9.3239 76.9303 9.33251 76.9303 9.34129V12.4676L76.9302 12.5C76.9299 12.567 76.9298 12.6001 76.9462 12.6162C76.9622 12.6319 76.9939 12.6316 77.0563 12.6311L77.0991 12.6308H80.5522C80.665 12.6308 80.7207 12.6308 80.7483 12.6587C80.7752 12.6859 80.7752 12.7398 80.7752 12.8464V22.4855C80.7752 22.504 80.775 22.5204 80.7747 22.535V22.5351C80.774 22.5903 80.7735 22.6193 80.7878 22.6344C80.8034 22.6509 80.8368 22.6508 80.9067 22.6504L80.9409 22.6503H80.9873H84.2546C84.3586 22.6503 84.41 22.6503 84.4355 22.6246C84.4606 22.5993 84.4606 22.5493 84.4606 22.4501V12.811C84.4606 12.7902 84.4603 12.7718 84.46 12.7555L84.46 12.7553C84.4591 12.6958 84.4586 12.6648 84.4739 12.6488C84.4904 12.6314 84.5255 12.6316 84.5988 12.6321L84.6448 12.6324H88.1599C88.3116 12.6324 88.3116 12.6324 88.3132 12.483V12.4368V9.37209C88.3132 9.35079 88.3134 9.33185 88.3136 9.31502V9.31485C88.3144 9.24718 88.3148 9.21355 88.2982 9.19708C88.2818 9.18081 88.2488 9.18126 88.1833 9.18216H88.1832C88.1659 9.1824 88.1464 9.18267 88.1242 9.18267Z" fill="#010101"/>
</svg>
