<svg width="30" height="41" viewBox="0 0 30 41" fill="none" xmlns="http://www.w3.org/2000/svg">
<path d="M28.046 4.08426C19.8276 10.3499 21.092 20.0964 21.1494 20.5141L21.2644 21.3031L22.2414 21.3959C22.5287 21.4424 24.1954 21.7208 23.9655 23.8094C23.7931 25.6194 21.2644 25.8979 20.2299 25.9907C19.3678 25.0625 16.5517 21.2103 16.2644 10.1642C16.2644 9.60729 16.2644 9.05035 16.2644 8.4934C16.2644 8.4934 16.4943 4.54838 16.7241 2.87755L15.0575 0L13.3333 2.78472C13.5632 4.45556 13.7931 8.40058 13.7931 8.40058C13.7931 8.95752 13.7931 9.51447 13.7931 10.0714C13.5057 21.1175 10.6897 25.0161 9.82759 25.8979C8.73563 25.8515 6.26437 25.5266 6.09195 23.7166C5.86207 21.628 7.52874 21.3495 7.81609 21.3031L8.7931 21.2103L8.90805 20.4213C8.96552 20.0036 10.2299 10.2571 2.01149 3.99144L0 2.55266V32.5812H8.33333C9.02299 36.9904 14.023 40.2856 14.2529 40.4249L15 40.9354L15.7471 40.4249C15.977 40.2856 21.0345 36.9904 21.6667 32.5812H30V2.55266L28.046 4.08426ZM6.6092 19.6323C5.4023 20.0036 3.96552 20.9782 3.73563 22.8347H2.41379V7.3331C6.6092 11.8815 6.66667 17.683 6.6092 19.6323ZM8.16092 29.7037L8.21839 30.6319H2.41379V24.7376H3.90805C4.54023 26.5941 6.6092 27.3831 8.50575 27.708C8.16092 28.6362 8.16092 29.5645 8.16092 29.7037ZM10.5747 29.6573C10.5747 29.1468 10.6322 28.4042 10.9195 27.94C13.046 28.3113 13.6207 29.7037 13.7931 30.6784H10.6322L10.5747 29.6573ZM13.8506 37.3617C12.6437 36.2014 11.2069 34.5306 10.8046 32.5812H13.8506V37.3617ZM15.3448 27.5688C15.2299 27.6616 15.1149 27.8008 15 27.94C14.8851 27.8008 14.7701 27.708 14.6552 27.5688C14.023 27.0118 13.2759 26.5477 12.4138 26.2692C13.2184 25.1553 14.1954 23.2988 15 20.1892C15.8046 23.2988 16.7816 25.2017 17.5862 26.2692C16.7241 26.5477 15.977 26.9654 15.3448 27.5688ZM16.2069 37.3153V32.5812H19.2529C18.908 34.4841 17.4713 36.155 16.2069 37.3153ZM19.4828 29.6573L19.4253 30.6319H16.2644C16.4368 29.6573 17.0115 28.2649 19.1379 27.8936C19.4253 28.4042 19.4828 29.1468 19.4828 29.6573ZM23.4483 19.6323C23.3333 17.7294 23.4483 11.9279 27.6437 7.3331V22.8347H26.3218C26.092 20.9318 24.7126 20.0036 23.4483 19.6323ZM21.8391 30.6319L21.8966 29.7037C21.8966 29.5645 21.954 28.6362 21.6092 27.708C23.4483 27.4295 25.5172 26.5941 26.2069 24.7376H27.7011V30.6319H21.8391Z" fill="#F2CD13"/>
</svg>
